<?xml version="1.0" encoding="utf-8"?>
<!-- Generator: Adobe Illustrator 26.4.1, SVG Export Plug-In . SVG Version: 6.00 Build 0)  -->
<svg version="1.1" id="Capa_1" xmlns="http://www.w3.org/2000/svg" xmlns:xlink="http://www.w3.org/1999/xlink" x="0px" y="0px"
	 viewBox="0 0 1280 720" style="enable-background:new 0 0 1280 720;" xml:space="preserve">
<style type="text/css">
	.st0{fill:none;stroke:#000000;stroke-width:2;stroke-miterlimit:10;}
	.st1{stroke:#000000;stroke-miterlimit:10;}
	.st2{stroke:#000000;stroke-width:2;stroke-miterlimit:10;}
</style>
<path class="st0" d="M599.06,462.12c-20.45,22.43-56.18,15.32-78.68,0.23c-7.25-4.86-13.73-11.2-18.55-18.49
	c-13.65-20.65-15.45-47.54-4.72-69.85c7.99-16.61,23.17-29.16,39.98-36.2c19.33-8.09,40.43-5.43,60.53-10.63
	c17.71-4.58,32.5-18.97,48.16-27.93c7.32-4.19,15.17-7.69,23.46-9.38c8.79-1.79,17.5,0.74,26.18-0.92
	c26.12-4.99,50.35-20.05,60.95-45.35c10.42-24.87,8.2-54.57-4.98-77.98c-23.05-40.91-83.87-55.31-121.94-29.07"/>
<path class="st1" d="M505.6,238.84l75.1,0c15.15,37.36,29.94,74.88,45.5,112.08c14.06,33.63,20.17,69.62-8.04,98.19
	c-6.5,6.58-14.27,11.47-22.21,16.11c3.25-3.96,1.38-9.84-0.64-14.55c-12.7-25.39-22.59-52.71-33.71-78.84
	c-11.08-26.06-21.93-52.23-32.94-78.32C520.97,275.28,513.29,257.06,505.6,238.84z"/>
<path d="M634.63,133.31c-10.4,2.47-23.17,14.98-29.88,22.83c-14.58,17.04-21.2,38.82-18.77,61.12c0.47,4.32,1.25,8.6,2.28,12.82
	l67.95,170.37h74.35c-8.37-20.89-16.74-41.78-25.12-62.67c-15.8-39.43-31.61-78.86-47.41-118.29
	c-5.49-13.71-10.99-27.41-16.48-41.12C635.35,162.88,625.77,142.43,634.63,133.31z"/>
<g>
	<g>
		<path class="st2" d="M382.29,548.7c0,11.23-4.97,14.47-11.67,14.47c-2.16,0-3.1-0.22-4.32-0.43v-3.53
			c1.01,0.22,2.81,0.36,4.46,0.36c6.77,0,7.63-5.26,7.63-10.94v-36.58h3.89V548.7z"/>
		<path class="st2" d="M394.96,509.39h3.6v6.98h-3.6V509.39z M394.96,526.46h3.6v36h-3.6V526.46z"/>
		<path class="st2" d="M410.37,536.25c0-6.05-0.07-8.64-0.07-9.79h3.53c0.07,1.15,0.14,3.46,0.14,8.06c2.09-5.4,6.7-8.64,12.53-8.93
			v3.89c-7.49,0.5-12.53,5.69-12.53,14.26v18.72h-3.6V536.25z"/>
		<path class="st2" d="M434.49,544.89c0.07,9.29,4.75,15.05,11.67,15.05c6.77,0,9.07-3.82,10.37-6.77h3.67
			c-1.51,4.75-5.33,10.15-14.19,10.15c-10.95,0-15.19-9.43-15.19-18.58c0-10.3,5.11-19.15,15.62-19.15
			c11.09,0,14.62,9.58,14.62,16.34c0,1.01,0,2.02-0.07,2.95H434.49z M457.31,541.72c-0.07-7.13-3.96-12.75-11.02-12.75
			c-7.42,0-10.8,5.18-11.59,12.75H457.31z"/>
		<path class="st2" d="M473.44,509.39v23.11c2.02-3.74,5.54-6.91,11.88-6.91c5.11,0,12.17,2.59,12.17,13.97v22.9h-3.6v-22.18
			c0-7.13-3.24-11.16-9.22-11.16c-7.13,0-11.23,4.39-11.23,13.25v20.09h-3.6v-53.07H473.44z"/>
		<path class="st2" d="M529.17,512.05h18c9.22,0,15.55,5.11,15.55,14.04c0,9.07-6.26,14.4-16.06,14.4h-13.54v21.96h-3.96V512.05z
			 M533.13,536.9h13.9c8.14,0,11.52-4.32,11.52-10.66c0-6.77-4.46-10.58-11.23-10.58h-14.19V536.9z"/>
		<path class="st2" d="M572.08,536.25c0-6.05-0.07-8.64-0.07-9.79h3.53c0.07,1.15,0.14,3.46,0.14,8.06c2.09-5.4,6.7-8.64,12.53-8.93
			v3.89c-7.49,0.5-12.53,5.69-12.53,14.26v18.72h-3.6V536.25z"/>
		<path class="st2" d="M624.57,544.38c0,10.01-5.54,18.94-16.27,18.94c-9.72,0-15.77-7.99-15.77-18.87
			c0-10.3,5.69-18.87,16.13-18.87C618.23,525.59,624.57,533.08,624.57,544.38z M596.34,544.46c0,8.57,4.61,15.48,12.24,15.48
			c7.78,0,12.17-6.41,12.17-15.48c0-8.5-4.32-15.48-12.31-15.48C600.23,528.97,596.34,535.82,596.34,544.46z"/>
		<path class="st2" d="M661.29,509.39v42.7c0,3.46,0,6.77,0.07,10.37h-3.46c-0.14-0.86-0.22-4.25-0.22-6.05
			c-1.8,4.39-5.83,6.91-12.1,6.91c-9.36,0-14.98-7.63-14.98-18.43c0-11.09,6.12-19.3,15.91-19.3c7.2,0,10.08,3.1,11.16,5.4v-21.6
			H661.29z M634.43,544.74c0,9.87,5.11,15.19,11.3,15.19c9.5,0,12.1-6.55,12.1-16.35c0-9.29-2.23-14.62-11.45-14.62
			C639.25,528.97,634.43,534.66,634.43,544.74z"/>
		<path class="st2" d="M700.02,551.95c0,3.53,0.07,9.14,0.07,10.51h-3.46c-0.14-0.94-0.22-3.31-0.22-6.26
			c-1.51,4.25-5.18,7.13-11.59,7.13c-5.18,0-11.81-2.02-11.81-13.03v-23.83h3.53v22.97c0,5.26,1.66,10.37,8.78,10.37
			c8.07,0,11.09-4.54,11.09-14.83v-18.5h3.6V551.95z"/>
		<path class="st2" d="M738.33,551.87c-1.73,6.34-5.9,11.45-13.97,11.45c-9,0-15.41-6.7-15.41-18.72c0-9.87,5.26-19.01,15.84-19.01
			c9.14,0,12.89,6.48,13.54,11.52h-3.67c-1.08-4.18-3.82-8.14-9.94-8.14c-7.63,0-11.95,6.48-11.95,15.48
			c0,8.57,4.03,15.48,11.59,15.48c5.26,0,8.42-2.66,10.3-8.06H738.33z"/>
		<path class="st2" d="M741.27,526.46h6.7v-11.23h3.6v11.23h8.57v3.38h-8.57v23.4c0,4.03,0.86,6.34,4.32,6.34
			c1.08,0,2.59-0.07,3.75-0.43v3.17c-1.22,0.5-2.95,0.65-4.46,0.65c-4.61,0-7.2-2.3-7.2-8.06v-25.06h-6.7V526.46z"/>
		<path class="st2" d="M767.48,509.39h3.6v6.98h-3.6V509.39z M767.48,526.46h3.6v36h-3.6V526.46z"/>
		<path class="st2" d="M812.05,544.38c0,10.01-5.54,18.94-16.27,18.94c-9.72,0-15.77-7.99-15.77-18.87
			c0-10.3,5.69-18.87,16.13-18.87C805.72,525.59,812.05,533.08,812.05,544.38z M783.83,544.46c0,8.57,4.61,15.48,12.24,15.48
			c7.78,0,12.17-6.41,12.17-15.48c0-8.5-4.32-15.48-12.31-15.48C787.71,528.97,783.83,535.82,783.83,544.46z"/>
		<path class="st2" d="M820.98,535.53c0-3.17,0-6.19-0.07-9.07h3.53c0.14,1.15,0.22,5.83,0.14,6.84c1.58-3.67,4.54-7.7,11.95-7.7
			c6.41,0,12.1,3.6,12.1,13.54v23.33h-3.6V539.7c0-6.41-2.66-10.58-8.93-10.58c-8.57,0-11.52,7.13-11.52,14.98v18.36h-3.6V535.53z"
			/>
		<path class="st2" d="M860.43,552.52c1.22,4.68,4.54,7.49,10.23,7.49c6.41,0,9-2.95,9-6.98c0-4.1-1.73-6.12-9.79-8.07
			c-9.29-2.23-11.59-5.04-11.59-9.79c0-4.97,3.75-9.58,11.88-9.58s12.02,4.97,12.6,10.08h-3.6c-0.65-3.02-3.02-6.77-9.14-6.77
			c-6.26,0-8.06,3.1-8.06,5.98c0,3.31,1.73,4.97,8.86,6.7c10.15,2.45,12.67,5.76,12.67,11.16c0,6.55-5.33,10.58-12.89,10.58
			c-8.21,0-12.82-4.32-13.83-10.8H860.43z"/>
	</g>
</g>
</svg>
